<svg width="135" height="54" viewBox="0 0 135 54" fill="none" xmlns="http://www.w3.org/2000/svg">
<rect opacity="0.35" x="79.4336" y="23.5" width="24" height="12" rx="3.8" stroke="black"/>
<path opacity="0.4" d="M104.934 27.7811V31.8566C105.738 31.5114 106.262 30.7085 106.262 29.8189C106.262 28.9293 105.738 28.1263 104.934 27.7811Z" fill="black"/>
<rect x="80.9336" y="25" width="21" height="9" rx="2.5" fill="black"/>
<path fill-rule="evenodd" clip-rule="evenodd" d="M63.2041 26.105C65.6912 26.1051 68.0832 27.0271 69.8857 28.6806C70.0215 28.8083 70.2384 28.8067 70.3721 28.677L71.6696 27.4135C71.7373 27.3478 71.775 27.2587 71.7745 27.166C71.7739 27.0733 71.7351 26.9847 71.6666 26.9197C66.9356 22.545 59.4719 22.545 54.7409 26.9197C54.6723 26.9847 54.6335 27.0733 54.6328 27.166C54.6322 27.2586 54.6699 27.3477 54.7375 27.4135L56.0354 28.677C56.169 28.8069 56.3861 28.8085 56.5217 28.6806C58.3245 27.027 60.7168 26.1049 63.2041 26.105ZM63.2008 30.3252C64.5581 30.3251 65.867 30.8369 66.8731 31.761C67.0092 31.8922 67.2235 31.8893 67.3562 31.7546L68.6435 30.4353C68.7113 30.3661 68.7489 30.2722 68.7479 30.1747C68.7469 30.0771 68.7074 29.984 68.6383 29.9162C65.5744 27.0254 60.8297 27.0254 57.7659 29.9162C57.6967 29.984 57.6572 30.0772 57.6563 30.1747C57.6554 30.2723 57.6931 30.3662 57.761 30.4353L59.0479 31.7546C59.1806 31.8893 59.395 31.8922 59.531 31.761C60.5365 30.8375 61.8443 30.3258 63.2008 30.3252ZM65.7252 33.1188C65.7271 33.2241 65.69 33.3257 65.6227 33.3995L63.4461 35.8542C63.3823 35.9264 63.2953 35.967 63.2045 35.967C63.1137 35.967 63.0268 35.9264 62.9629 35.8542L60.7859 33.3995C60.7187 33.3256 60.6817 33.224 60.6837 33.1187C60.6857 33.0133 60.7265 32.9136 60.7965 32.843C62.1866 31.5291 64.2225 31.5291 65.6126 32.843C65.6825 32.9136 65.7233 33.0134 65.7252 33.1188Z" fill="black"/>
<path fill-rule="evenodd" clip-rule="evenodd" d="M47.1336 24.6814C47.1336 24.0483 46.656 23.5352 46.0669 23.5352H45.0003C44.4112 23.5352 43.9336 24.0483 43.9336 24.6814V34.6153C43.9336 35.2484 44.4112 35.7616 45.0003 35.7616H46.0669C46.656 35.7616 47.1336 35.2484 47.1336 34.6153V24.6814ZM39.6995 25.9804H40.7661C41.3552 25.9804 41.8328 26.5059 41.8328 27.1542V34.5878C41.8328 35.2361 41.3552 35.7616 40.7661 35.7616H39.6995C39.1104 35.7616 38.6328 35.2361 38.6328 34.5878V27.1542C38.6328 26.5059 39.1104 25.9804 39.6995 25.9804ZM35.3677 28.6295H34.301C33.7119 28.6295 33.2344 29.1617 33.2344 29.8182V34.5729C33.2344 35.2294 33.7119 35.7616 34.301 35.7616H35.3677C35.9568 35.7616 36.4344 35.2294 36.4344 34.5729V29.8182C36.4344 29.1617 35.9568 28.6295 35.3677 28.6295ZM30.0669 31.0748H29.0003C28.4112 31.0748 27.9336 31.5994 27.9336 32.2465V34.5899C27.9336 35.237 28.4112 35.7616 29.0003 35.7616H30.0669C30.656 35.7616 31.1336 35.237 31.1336 34.5899V32.2465C31.1336 31.5994 30.656 31.0748 30.0669 31.0748Z" fill="black"/>
</svg>
