<svg width="24" height="24" viewBox="0 0 24 24" fill="none" xmlns="http://www.w3.org/2000/svg">
<path d="M21 12V10C21 8.67392 20.4732 7.40215 19.5355 6.46447C18.5979 5.52678 17.3261 5 16 5H8C6.67392 5 5.40215 5.52678 4.46447 6.46447C3.52678 7.40215 3 8.67392 3 10C3 11.3261 3.52678 12.5979 4.46447 13.5355C5.40215 14.4732 6.67392 15 8 15H12M20.124 19.119C20.4059 18.8409 20.6299 18.5097 20.7832 18.1446C20.9365 17.7794 21.0159 17.3876 21.017 16.9916C21.0181 16.5956 20.9408 16.2033 20.7895 15.8374C20.6382 15.4714 20.416 15.139 20.1356 14.8594C19.8552 14.5797 19.5223 14.3583 19.1559 14.208C18.7896 14.0577 18.3971 13.9814 18.0011 13.9835C17.6051 13.9856 17.2134 14.0661 16.8487 14.2203C16.484 14.3745 16.1534 14.5994 15.876 14.882C15.3216 15.4469 15.0129 16.2079 15.0171 16.9994C15.0213 17.7908 15.3381 18.5486 15.8985 19.1075C16.4588 19.6664 17.2174 19.9813 18.0089 19.9834C18.8003 19.9856 19.5606 19.6749 20.124 19.119ZM20.124 19.119L22 21" stroke="#A0A0A0" stroke-width="1.5" stroke-linecap="round" stroke-linejoin="round"/>
</svg>
