<svg width="21" height="13" viewBox="0 0 21 13" fill="none" xmlns="http://www.w3.org/2000/svg">
<path fill-rule="evenodd" clip-rule="evenodd" d="M20.1336 1.68138C20.1336 1.04834 19.656 0.535156 19.0669 0.535156H18.0003C17.4112 0.535156 16.9336 1.04834 16.9336 1.68138V11.6153C16.9336 12.2484 17.4112 12.7616 18.0003 12.7616H19.0669C19.656 12.7616 20.1336 12.2484 20.1336 11.6153V1.68138ZM12.6995 2.98044H13.7661C14.3552 2.98044 14.8328 3.50594 14.8328 4.15417V11.5878C14.8328 12.2361 14.3552 12.7616 13.7661 12.7616H12.6995C12.1104 12.7616 11.6328 12.2361 11.6328 11.5878V4.15417C11.6328 3.50594 12.1104 2.98044 12.6995 2.98044ZM8.36771 5.62949H7.30104C6.71194 5.62949 6.23438 6.16168 6.23438 6.81817V11.5729C6.23438 12.2294 6.71194 12.7616 7.30104 12.7616H8.36771C8.95681 12.7616 9.43437 12.2294 9.43437 11.5729V6.81817C9.43437 6.16168 8.95681 5.62949 8.36771 5.62949ZM3.06693 8.07478H2.00026C1.41116 8.07478 0.933594 8.59937 0.933594 9.24648V11.5899C0.933594 12.237 1.41116 12.7616 2.00026 12.7616H3.06693C3.65603 12.7616 4.13359 12.237 4.13359 11.5899V9.24648C4.13359 8.59937 3.65603 8.07478 3.06693 8.07478Z" fill="black"/>
</svg>
