<svg width="35" height="13" viewBox="0 0 35 13" fill="none" xmlns="http://www.w3.org/2000/svg">
<path d="M5.31348 0.0629883C5.9554 0.0629883 6.56413 0.181966 7.13965 0.419922C7.71517 0.652344 8.22428 1.01758 8.66699 1.51562C9.11523 2.00814 9.46663 2.64176 9.72119 3.4165C9.97575 4.18571 10.103 5.11263 10.103 6.19727V6.21387C10.103 7.55859 9.90934 8.70964 9.52197 9.66699C9.1346 10.6243 8.57845 11.3604 7.85352 11.875C7.13411 12.3841 6.2736 12.6387 5.27197 12.6387C4.53597 12.6387 3.87191 12.5059 3.27979 12.2402C2.6932 11.9691 2.20622 11.5983 1.81885 11.1279C1.43701 10.652 1.17969 10.1097 1.04688 9.50098L1.03027 9.40967H3.13037L3.16357 9.49268C3.26872 9.76937 3.41813 10.0129 3.61182 10.2231C3.81104 10.4334 4.04899 10.5967 4.32568 10.7129C4.60791 10.8236 4.92334 10.8789 5.27197 10.8789C5.90283 10.8789 6.41748 10.6935 6.81592 10.3228C7.21989 9.94645 7.52148 9.44564 7.7207 8.82031C7.92546 8.18945 8.04167 7.49219 8.06934 6.72852C8.07487 6.64551 8.07764 6.56527 8.07764 6.48779C8.07764 6.40479 8.07764 6.32454 8.07764 6.24707L7.7041 4.24658C7.7041 3.79281 7.59896 3.38053 7.38867 3.00977C7.17839 2.639 6.89339 2.3457 6.53369 2.12988C6.17952 1.91406 5.77832 1.80615 5.33008 1.80615C4.89844 1.80615 4.50277 1.9113 4.14307 2.12158C3.78337 2.33187 3.49561 2.61963 3.27979 2.98486C3.06396 3.34456 2.95605 3.74854 2.95605 4.19678V4.21338C2.95605 4.67822 3.05843 5.09049 3.26318 5.4502C3.46794 5.80436 3.7474 6.08382 4.10156 6.28857C4.45573 6.49333 4.8597 6.5957 5.31348 6.5957C5.76725 6.5957 6.17399 6.49609 6.53369 6.29688C6.89339 6.09766 7.17839 5.82096 7.38867 5.4668C7.59896 5.11263 7.7041 4.71143 7.7041 4.26318V4.24658H8.20215V6.45459H7.91162C7.76774 6.77002 7.55469 7.06331 7.27246 7.33447C6.99023 7.60563 6.6416 7.82422 6.22656 7.99023C5.81706 8.15625 5.33561 8.23926 4.78223 8.23926C4.01855 8.23926 3.34342 8.06771 2.75684 7.72461C2.17025 7.38151 1.70817 6.91113 1.37061 6.31348C1.03857 5.71582 0.872559 5.04069 0.872559 4.28809V4.27148C0.872559 3.45801 1.06071 2.73584 1.43701 2.10498C1.81885 1.46859 2.34456 0.97054 3.01416 0.61084C3.68929 0.245605 4.45573 0.0629883 5.31348 0.0629883ZM13.8716 10.7295C13.4953 10.7295 13.1799 10.605 12.9253 10.356C12.6763 10.1014 12.5518 9.7915 12.5518 9.42627C12.5518 9.0555 12.6763 8.74561 12.9253 8.49658C13.1799 8.24202 13.4953 8.11475 13.8716 8.11475C14.2534 8.11475 14.5688 8.24202 14.8179 8.49658C15.0669 8.74561 15.1914 9.0555 15.1914 9.42627C15.1914 9.7915 15.0669 10.1014 14.8179 10.356C14.5688 10.605 14.2534 10.7295 13.8716 10.7295ZM13.8716 4.57031C13.4953 4.57031 13.1799 4.4458 12.9253 4.19678C12.6763 3.94222 12.5518 3.63232 12.5518 3.26709C12.5518 2.89632 12.6763 2.58643 12.9253 2.3374C13.1799 2.08285 13.4953 1.95557 13.8716 1.95557C14.2534 1.95557 14.5688 2.08285 14.8179 2.3374C15.0669 2.58643 15.1914 2.89632 15.1914 3.26709C15.1914 3.63232 15.0669 3.94222 14.8179 4.19678C14.5688 4.4458 14.2534 4.57031 13.8716 4.57031ZM23.4507 12.3398V10.0405H17.5903V8.28906C17.9058 7.75228 18.2212 7.21273 18.5366 6.67041C18.8576 6.12809 19.1813 5.58854 19.5078 5.05176C19.8398 4.50944 20.1691 3.97542 20.4956 3.44971C20.8276 2.91846 21.1569 2.39551 21.4834 1.88086C21.8154 1.36068 22.1475 0.854329 22.4795 0.361816H25.4927V8.27246H27.1113V10.0405H25.4927V12.3398H23.4507ZM19.5825 8.32227H23.4839V2.07178H23.3594C23.1159 2.44808 22.8641 2.83545 22.604 3.23389C22.3494 3.63232 22.0921 4.03906 21.832 4.4541C21.5719 4.86914 21.3146 5.28695 21.0601 5.70752C20.8055 6.12256 20.5537 6.54036 20.3047 6.96094C20.0557 7.37598 19.8149 7.78825 19.5825 8.19775V8.32227ZM32.0669 12.3398V2.47021H31.9175L28.9375 4.57031V2.56152L32.0669 0.361816H34.2002V12.3398H32.0669Z" fill="black"/>
</svg>
