<svg width="18" height="13" viewBox="0 0 18 13" fill="none" xmlns="http://www.w3.org/2000/svg">
<path fill-rule="evenodd" clip-rule="evenodd" d="M9.20411 3.10495C11.6912 3.10506 14.0832 4.02714 15.8857 5.68062C16.0215 5.80828 16.2384 5.80667 16.3721 5.67701L17.6696 4.41354C17.7373 4.34778 17.775 4.25871 17.7745 4.16603C17.7739 4.07335 17.7351 3.9847 17.6666 3.91971C12.9356 -0.455007 5.47188 -0.455007 0.740868 3.91971C0.672336 3.98465 0.633452 4.07327 0.63282 4.16595C0.632188 4.25863 0.669861 4.34774 0.737501 4.41354L2.03537 5.67701C2.16896 5.80686 2.38609 5.80847 2.52174 5.68062C4.32448 4.02703 6.71676 3.10495 9.20411 3.10495ZM9.20076 7.32523C10.5581 7.32515 11.867 7.83688 12.8731 8.76101C13.0092 8.89217 13.2235 8.88933 13.3562 8.75461L14.6435 7.4353C14.7113 7.3661 14.7489 7.27222 14.7479 7.17467C14.7469 7.07712 14.7074 6.98403 14.6383 6.91624C11.5744 4.0254 6.82969 4.0254 3.76586 6.91624C3.69665 6.98403 3.65717 7.07716 3.65626 7.17474C3.65535 7.27233 3.6931 7.3662 3.76103 7.4353L5.04794 8.75461C5.18059 8.88933 5.39496 8.89217 5.53104 8.76101C6.53649 7.8375 7.84434 7.3258 9.20076 7.32523ZM11.7252 10.1188C11.7271 10.2241 11.69 10.3257 11.6227 10.3995L9.44608 12.8542C9.38228 12.9264 9.29528 12.967 9.20451 12.967C9.11374 12.967 9.02675 12.9264 8.96294 12.8542L6.78592 10.3995C6.71867 10.3256 6.68167 10.224 6.68366 10.1187C6.68566 10.0133 6.72647 9.91358 6.79645 9.84296C8.18655 8.52907 10.2225 8.52907 11.6126 9.84296C11.6825 9.91364 11.7233 10.0134 11.7252 10.1188Z" fill="black"/>
</svg>
